  0
SECTION
  2
HEADER
  9
$ACADVER
  1
AC1009
  9
$INSBASE
 10
0
 20
0
 30
0
  9
$EXTMIN
 10
0
 20
0
  9
$EXTMAX
 10
297
 20
210
  9
$LIMMIN
 10
0
 20
0
  9
$LIMMAX
 10
297
 20
210
  9
$LTSCALE
 40
1
  0
ENDSEC
  0
SECTION
  2
TABLES
  0
TABLE
  2
LTYPE
 70
     9
  0
LTYPE
  2
CONTINUOUS
 70
    64
  3
実線
 72
    65
 73
     0
 40
0.0
  0
LTYPE
  2
DASHED1
 70
    64
  3
--  --  --  --  --  --  --  --  
 72
    65
 73
     2
 40
2.5
 49
1.25
 49
-1.25
  0
LTYPE
  2
DASHED2
 70
    64
  3
----    ----    ----    ----    
 72
    65
 73
     2
 40
5.0
 49
2.5
 49
-2.5
  0
LTYPE
  2
DASHED3
 70
    64
  3
------  ------  ------  ------  
 72
    65
 73
     2
 40
5.0
 49
3.75
 49
-1.25
  0
LTYPE
  2
CENTER1
 70
    64
  3
----- - ----- - ----- - ----- - 
 72
    65
 73
     4
 40
10.0
 49
6.25
 49
-1.25
 49
1.25
 49
-1.25
  0
LTYPE
  2
CENTER2
 70
    64
  3
----------  --  ----------  --  
 72
    65
 73
     4
 40
20.0
 49
12.5
 49
-2.5
 49
2.5
 49
-2.5
  0
LTYPE
  2
PHANTOM1
 70
    64
  3
--- - - --- - - --- - - --- - - 
 72
    65
 73
     6
 40
10.0
 49
3.25
 49
-1.25
 49
1.25
 49
-1.25
 49
1.25
 49
-1.25
  0
LTYPE
  2
PHANTOM2
 70
    64
  3
--------  -  -  --------  -  -  
 72
    65
 73
     6
 40
20.0
 49
10.0
 49
-2.5
 49
1.25
 49
-2.5
 49
1.25
 49
-2.5
  0
LTYPE
  2
DOT
 70
    64
  3
-   -   -   -   -   -   -   -   
 72
    65
 73
     2
 40
2.5
 49
0.625
 49
-1.875
  0
LTYPE
  2
DUMMY
 70
    64
  3
ダミー
 72
    65
 73
     0
 40
0.0
  0
LTYPE
  2
RAND1
 70
    64
  3
ランダム線1
 72
    65
 73
     4
 40
10.0
 49
1.0
 49
-2.0
 49
3.0
 49
-4.0
  0
LTYPE
  2
RAND2
 70
    64
  3
ランダム線2
 72
    65
 73
     4
 40
14.0
 49
2.0
 49
-3.0
 49
4.0
 49
-5.0
  0
LTYPE
  2
RAND3
 70
    64
  3
ランダム線3
 72
    65
 73
     4
 40
18.0
 49
3.0
 49
-4.0
 49
5.0
 49
-6.0
  0
LTYPE
  2
RAND4
 70
    64
  3
ランダム線4
 72
    65
 73
     4
 40
22.0
 49
4.0
 49
-5.0
 49
6.0
 49
-7.0
  0
LTYPE
  2
RAND5
 70
    64
  3
ランダム線5
 72
    65
 73
     4
 40
26.0
 49
5.0
 49
-6.0
 49
7.0
 49
-8.0
  0
LTYPE
  2
LONG1
 70
    64
  3
----------  --  ----------  --  
 72
    65
 73
     4
 40
40.0
 49
32.5
 49
-2.5
 49
2.5
 49
-2.5
  0
LTYPE
  2
LONG2
 70
    64
  3
--------  -  -  --------  -  -  
 72
    65
 73
     6
 40
40.0
 49
30.0
 49
-2.5
 49
1.25
 49
-2.5
 49
1.25
 49
-2.5
  0
LTYPE
  2
LONG3
 70
    64
  3
+++++++++++++++..+++++++++++++++
 72
    65
 73
     2
 40
40.0
 49
37.5
 49
-2.5
  0
LTYPE
  2
LONG4
 70
    64
  3
+++++++++++++++..+++++++++++++++
 72
    65
 73
     2
 40
80.0
 49
75.0
 49
-5.0
  0
LTYPE
  2
LONG5
 70
    64
  3
----------  --  ----------  --  
 72
    65
 73
     4
 40
60.0
 49
37.5
 49
-7.5
 49
7.5
 49
-7.5
  0
LTYPE
  2
dashed
 70
   64
  3
-------   -------------   ------
 72
   65
 73
    2
 40
7.5
 49
6
 49
-1.5
  0
LTYPE
  2
dashed_spaced
 70
   64
  3
----        --------        ----
 72
   65
 73
    2
 40
12
 49
6
 49
-6
  0
LTYPE
  2
long_dashed_dotted
 70
   64
  3
------------- --- --------------
 72
   65
 73
    4
 40
15.25
 49
12
 49
-1.5
 49
0.25
 49
-1.5
  0
LTYPE
  2
long_dashed_double-dotted
 70
   64
  3
----------- --- --- ------------
 72
   65
 73
    6
 40
17
 49
12
 49
-1.5
 49
0.25
 49
-1.5
 49
0.25
 49
-1.5
  0
LTYPE
  2
long_dashed_triplicate-dotted
 70
   64
  3
--------- --- --- --- ----------
 72
   65
 73
    8
 40
18.75
 49
12
 49
-1.5
 49
0.25
 49
-1.5
 49
0.25
 49
-1.5
 49
0.25
 49
-1.5
  0
LTYPE
  2
dotted
 70
   64
  3
   -       -       -       -    
 72
   65
 73
    2
 40
1.75
 49
0.25
 49
-1.5
  0
LTYPE
  2
chain
 70
   64
  3
-------------- -- --------------
 72
   65
 73
    4
 40
18.5
 49
12
 49
-1.5
 49
3.5
 49
-1.5
  0
LTYPE
  2
chain_double_dash
 70
   64
  3
------------ -- -- -------------
 72
   65
 73
    6
 40
23.5
 49
12
 49
-1.5
 49
3.5
 49
-1.5
 49
3.5
 49
-1.5
  0
LTYPE
  2
dashed_dotted
 70
   64
  3
-----------     -     ----------
 72
   65
 73
    4
 40
9.25
 49
6
 49
-1.5
 49
0.25
 49
-1.5
  0
LTYPE
  2
double-dashed_dotted
 70
   64
  3
------   -----------   -   -----
 72
   65
 73
    6
 40
16.75
 49
6
 49
-1.5
 49
6
 49
-1.5
 49
0.25
 49
-1.5
  0
LTYPE
  2
dashed_double-dotted
 70
   64
  3
---------    -    -    ---------
 72
   65
 73
    6
 40
11
 49
6
 49
-1.5
 49
0.25
 49
-1.5
 49
0.25
 49
-1.5
  0
LTYPE
  2
double-dashed_double-dotted
 70
   64
  3
-----   ---------   -   -   ----
 72
   65
 73
    8
 40
18.5
 49
6
 49
-1.5
 49
6
 49
-1.5
 49
0.25
 49
-1.5
 49
0.25
 49
-1.5
  0
LTYPE
  2
dashed_triplicate-dotted
 70
   64
  3
-------    -    -    -    ------
 72
   65
 73
    8
 40
12.75
 49
6
 49
-1.5
 49
0.25
 49
-1.5
 49
0.25
 49
-1.5
 49
0.25
 49
-1.5
  0
LTYPE
  2
double-dashed_triplicate-dotted
 70
   64
  3
-----  ---------  -  -  -  -----
 72
   65
 73
   10
 40
20.25
 49
6
 49
-1.5
 49
6
 49
-1.5
 49
0.25
 49
-1.5
 49
0.25
 49
-1.5
 49
0.25
 49
-1.5
  0
LTYPE
  2
undefined
 70
   64
  3
--------------------------------
 72
   65
 73
    0
 40
0
  0
LTYPE
  2
_
 70
   64
  3
                                
 72
   65
 73
    0
 40
0
  0
LTYPE
  2
__18
 70
   64
  3
                                
 72
   65
 73
    0
 40
0
  0
LTYPE
  2
__19
 70
   64
  3
                                
 72
   65
 73
    0
 40
0
  0
LTYPE
  2
__20
 70
   64
  3
                                
 72
   65
 73
    0
 40
0
  0
LTYPE
  2
__21
 70
   64
  3
                                
 72
   65
 73
    0
 40
0
  0
LTYPE
  2
__22
 70
   64
  3
                                
 72
   65
 73
    0
 40
0
  0
LTYPE
  2
__23
 70
   64
  3
                                
 72
   65
 73
    0
 40
0
  0
LTYPE
  2
__24
 70
   64
  3
                                
 72
   65
 73
    0
 40
0
  0
LTYPE
  2
__25
 70
   64
  3
                                
 72
   65
 73
    0
 40
0
  0
LTYPE
  2
__26
 70
   64
  3
                                
 72
   65
 73
    0
 40
0
  0
LTYPE
  2
__27
 70
   64
  3
                                
 72
   65
 73
    0
 40
0
  0
LTYPE
  2
__28
 70
   64
  3
                                
 72
   65
 73
    0
 40
0
  0
LTYPE
  2
__29
 70
   64
  3
                                
 72
   65
 73
    0
 40
0
  0
LTYPE
  2
__30
 70
   64
  3
                                
 72
   65
 73
    0
 40
0
  0
LTYPE
  2
__31
 70
   64
  3
                                
 72
   65
 73
    0
 40
0
  0
LTYPE
  2
__32
 70
   64
  3
                                
 72
   65
 73
    0
 40
0
  0
ENDTAB
  0
TABLE
  2
STYLE
  5
3
100
AcDbSymbolTable
 70
     1
  0
STYLE
  5
10
100
AcDbSymbolTableRecord
100
AcDbTextStyleTableRecord
  2
STANDARD
 70
     0
 40
0.0
 41
1.0
 50
0.0
 71
     0
 42
0.2
  3
txt
  4
bigfont.shx
  0
STYLE
  5
26
100
AcDbSymbolTableRecord
100
AcDbTextStyleTableRecord
  2
TATEGAKI
 70
    68
 40
0.0
 41
1.0
 50
0.0
 71
     0
 42
1.0
  3
txt
  4
bigfont.shx
  0
ENDTAB
  0
TABLE
  2
LAYER
 70
    2
  0
LAYER
  2
_0-0_
 70
   64
 62
    7
  6
CONTINUOUS
  0
LAYER
  2
ADD_LINE
 70
   64
 62
    7
  6
CONTINUOUS
  0
ENDTAB
  0
ENDSEC
  0
SECTION
  2
BLOCKS
  0
ENDSEC
  0
SECTION
  2
ENTITIES
  0
ARC
  8
_0-0_
  6
CONTINUOUS
 62
    7
 10
-33.125
 20
159.50543579034814
 40
1
 50
90
 51
180
  0
ARC
  8
_0-0_
  6
CONTINUOUS
 62
    7
 10
2.9750000000000227
 20
161.50543579034814
 40
1
 50
270
 51
0
  0
ARC
  8
_0-0_
  6
CONTINUOUS
 62
    7
 10
4.9750000000000227
 20
169.03043579034812
 40
1
 50
90
 51
180
  0
LINE
  8
_0-0_
  6
CONTINUOUS
 62
    7
 10
53.075000000000031
 20
165.26793579034813
 11
107.17500000000004
 21
165.26793579034813
  0
LINE
  8
_0-0_
  6
CONTINUOUS
 62
    7
 10
108.17500000000004
 20
164.26793579034813
 11
108.17500000000004
 21
130.02794685380968
  0
LINE
  8
_0-0_
  6
CONTINUOUS
 62
    7
 10
108.17500000000004
 20
130.02794685380968
 11
98.640033749275915
 21
75.952466105409599
  0
LINE
  8
_0-0_
  6
CONTINUOUS
 62
    7
 10
97.481577818596776
 20
75.141306530064327
 11
75.212556682370405
 21
79.067935790348116
  0
LINE
  8
_0-0_
  6
CONTINUOUS
 62
    7
 10
75.212556682370405
 20
79.067935790348116
 11
37.987443317629669
 21
79.067935790348116
  0
LINE
  8
_0-0_
  6
CONTINUOUS
 62
    7
 10
10.977963651700179
 20
74.305435790348113
 11
37.987443317629669
 21
79.067935790348116
  0
LINE
  8
_0-0_
  6
CONTINUOUS
 62
    7
 10
-34.125
 20
75.305435790348113
 11
-34.125
 21
159.50543579034814
  0
LINE
  8
_0-0_
  6
CONTINUOUS
 62
    7
 10
-33.125
 20
160.50543579034814
 11
2.9750000000000227
 21
160.50543579034814
  0
LINE
  8
_0-0_
  6
CONTINUOUS
 62
    7
 10
3.9750000000000227
 20
161.50543579034814
 11
3.9750000000000227
 21
169.03043579034812
  0
LINE
  8
_0-0_
  6
CONTINUOUS
 62
    7
 10
52.075000000000031
 20
169.03043579034812
 11
52.075000000000031
 21
166.26793579034813
  0
LINE
  8
_0-0_
  6
CONTINUOUS
 62
    7
 10
118.73124999999996
 20
165.26793579034813
 11
172.83124999999998
 21
165.26793579034813
  0
LINE
  8
_0-0_
  6
CONTINUOUS
 62
    7
 10
173.83124999999998
 20
166.26793579034813
 11
173.83124999999998
 21
169.03043579034812
  0
LINE
  8
_0-0_
  6
CONTINUOUS
 62
    7
 10
221.93124999999998
 20
169.03043579034812
 11
221.93124999999998
 21
161.50543579034814
  0
LINE
  8
_0-0_
  6
CONTINUOUS
 62
    7
 10
222.93124999999998
 20
160.50543579034814
 11
259.03125
 21
160.50543579034814
  0
LINE
  8
_0-0_
  6
CONTINUOUS
 62
    7
 10
260.03125
 20
159.50543579034814
 11
260.03125
 21
75.305435790348113
  0
LINE
  8
_0-0_
  6
CONTINUOUS
 62
    7
 10
214.92828634829982
 20
74.305435790348113
 11
187.91880668237033
 21
79.067935790348116
  0
LINE
  8
_0-0_
  6
CONTINUOUS
 62
    7
 10
187.91880668237033
 20
79.067935790348116
 11
150.6936933176296
 21
79.067935790348116
  0
LINE
  8
_0-0_
  6
CONTINUOUS
 62
    7
 10
150.6936933176296
 20
79.067935790348116
 11
128.42467218140322
 21
75.141306530064327
  0
LINE
  8
_0-0_
  6
CONTINUOUS
 62
    7
 10
127.26621625072406
 20
75.952466105409613
 11
117.73124999999996
 21
130.02794685380968
  0
LINE
  8
_0-0_
  6
CONTINUOUS
 62
    7
 10
117.73124999999996
 20
130.02794685380968
 11
117.73124999999996
 21
164.26793579034813
  0
ARC
  8
_0-0_
  6
CONTINUOUS
 62
    7
 10
51.075000000000031
 20
169.03043579034812
 40
1
 50
0
 51
90
  0
ARC
  8
_0-0_
  6
CONTINUOUS
 62
    7
 10
53.075000000000031
 20
166.26793579034813
 40
1
 50
180
 51
270
  0
ARC
  8
_0-0_
  6
CONTINUOUS
 62
    7
 10
107.17500000000004
 20
164.26793579034813
 40
1
 50
0
 51
90
  0
ARC
  8
_0-0_
  6
CONTINUOUS
 62
    7
 10
118.73124999999996
 20
164.26793579034813
 40
1
 50
90
 51
180
  0
ARC
  8
_0-0_
  6
CONTINUOUS
 62
    7
 10
-33.125
 20
75.305435790348113
 40
1
 50
180
 51
270
  0
ARC
  8
_0-0_
  6
CONTINUOUS
 62
    7
 10
97.655225996263709
 20
76.126114283076546
 40
1.0000000000000084
 50
259.99999999999989
 51
350
  0
ARC
  8
_0-0_
  6
CONTINUOUS
 62
    7
 10
128.25102400373626
 20
76.126114283076546
 40
1.0000000000000162
 50
189.99999999999997
 51
280.00000000000148
  0
ARC
  8
_0-0_
  6
CONTINUOUS
 62
    7
 10
259.03125
 20
75.305435790348113
 40
1
 50
270
 51
0
  0
ARC
  8
_0-0_
  6
CONTINUOUS
 62
    7
 10
172.83124999999998
 20
166.26793579034813
 40
1
 50
270
 51
0
  0
ARC
  8
_0-0_
  6
CONTINUOUS
 62
    7
 10
174.83124999999998
 20
169.03043579034812
 40
1
 50
90
 51
180
  0
ARC
  8
_0-0_
  6
CONTINUOUS
 62
    7
 10
220.93124999999998
 20
169.03043579034812
 40
1
 50
0
 51
90
  0
ARC
  8
_0-0_
  6
CONTINUOUS
 62
    7
 10
222.93124999999998
 20
161.50543579034814
 40
1
 50
180
 51
270
  0
ARC
  8
_0-0_
  6
CONTINUOUS
 62
    7
 10
259.03125
 20
159.50543579034814
 40
1
 50
0
 51
90
  0
ARC
  8
_0-0_
  6
CONTINUOUS
 62
    7
 10
-33.125
 20
71.305435790348113
 40
1
 50
90
 51
180
  0
ARC
  8
_0-0_
  6
CONTINUOUS
 62
    7
 10
-33.125
 20
68.305435790348113
 40
1
 50
180
 51
270
  0
ARC
  8
_0-0_
  6
CONTINUOUS
 62
    7
 10
259.03125
 20
71.305435790348113
 40
1
 50
0
 51
90
  0
ARC
  8
_0-0_
  6
CONTINUOUS
 62
    7
 10
259.03125
 20
68.305435790348113
 40
1
 50
270
 51
0
  0
LINE
  8
_0-0_
  6
CONTINUOUS
 62
    7
 10
260.03125
 20
71.305435790348113
 11
260.03125
 21
68.305435790348113
  0
LINE
  8
_0-0_
  6
CONTINUOUS
 62
    7
 10
259.03125
 20
67.305435790348113
 11
-33.125
 21
67.305435790348113
  0
LINE
  8
_0-0_
  6
CONTINUOUS
 62
    7
 10
-34.125
 20
68.305435790348113
 11
-34.125
 21
71.305435790348113
  0
ARC
  8
_0-0_
  6
CONTINUOUS
 62
    7
 10
-33.125
 20
176.03043579034812
 40
1
 50
90
 51
180
  0
ARC
  8
_0-0_
  6
CONTINUOUS
 62
    7
 10
-33.125
 20
173.03043579034812
 40
1
 50
180
 51
270
  0
LINE
  8
_0-0_
  6
CONTINUOUS
 62
    7
 10
-34.125
 20
173.03043579034812
 11
-34.125
 21
176.03043579034812
  0
ARC
  8
_0-0_
  6
CONTINUOUS
 62
    7
 10
259.03125
 20
176.03043579034812
 40
1
 50
0
 51
90
  0
LINE
  8
_0-0_
  6
CONTINUOUS
 62
    7
 10
-33.125
 20
177.03043579034812
 11
259.03125
 21
177.03043579034812
  0
LINE
  8
_0-0_
  6
CONTINUOUS
 62
    7
 10
260.03125
 20
176.03043579034812
 11
260.03125
 21
173.03043579034812
  0
ARC
  8
_0-0_
  6
CONTINUOUS
 62
    7
 10
259.03125
 20
173.03043579034812
 40
1
 50
270
 51
0
  0
ARC
  8
_0-0_
  6
CONTINUOUS
 62
    7
 10
-15.125
 20
73.305435790348113
 40
1
 50
270
 51
90
  0
ARC
  8
_0-0_
  6
CONTINUOUS
 62
    7
 10
-8.125
 20
73.305435790348113
 40
1
 50
90
 51
270
  0
ARC
  8
_0-0_
  6
CONTINUOUS
 62
    7
 10
234.03125
 20
73.305435790348113
 40
1
 50
270
 51
90
  0
ARC
  8
_0-0_
  6
CONTINUOUS
 62
    7
 10
241.03125
 20
73.305435790348113
 40
1
 50
90
 51
270
  0
ARC
  8
_0-0_
  6
CONTINUOUS
 62
    7
 10
206.03125
 20
171.03043579034812
 40
1
 50
90
 51
270
  0
ARC
  8
_0-0_
  6
CONTINUOUS
 62
    7
 10
199.03125
 20
171.03043579034812
 40
1
 50
270
 51
90
  0
ARC
  8
_0-0_
  6
CONTINUOUS
 62
    7
 10
19.875
 20
171.03043579034812
 40
1
 50
270
 51
90
  0
ARC
  8
_0-0_
  6
CONTINUOUS
 62
    7
 10
26.875
 20
171.03043579034812
 40
1
 50
90
 51
270
  0
LINE
  8
_0-0_
  6
CONTINUOUS
 62
    7
 10
26.875
 20
170.03043579034812
 11
51.075000000000031
 21
170.03043579034812
  0
LINE
  8
_0-0_
  6
CONTINUOUS
 62
    7
 10
4.9750000000000227
 20
170.03043579034812
 11
19.875
 21
170.03043579034812
  0
LINE
  8
_0-0_
  6
CONTINUOUS
 62
    7
 10
19.875
 20
172.03043579034812
 11
-33.125
 21
172.03043579034812
  0
LINE
  8
_0-0_
  6
CONTINUOUS
 62
    7
 10
26.875
 20
172.03043579034812
 11
199.03125
 21
172.03043579034812
  0
LINE
  8
_0-0_
  6
CONTINUOUS
 62
    7
 10
174.83124999999998
 20
170.03043579034812
 11
199.03125
 21
170.03043579034812
  0
LINE
  8
_0-0_
  6
CONTINUOUS
 62
    7
 10
206.03125
 20
170.03043579034812
 11
220.93124999999998
 21
170.03043579034812
  0
LINE
  8
_0-0_
  6
CONTINUOUS
 62
    7
 10
259.03125
 20
172.03043579034812
 11
206.03125
 21
172.03043579034812
  0
LINE
  8
_0-0_
  6
CONTINUOUS
 62
    7
 10
214.92828634829982
 20
74.305435790348113
 11
234.03125
 21
74.305435790348113
  0
LINE
  8
_0-0_
  6
CONTINUOUS
 62
    7
 10
259.03125
 20
74.305435790348113
 11
241.03125
 21
74.305435790348113
  0
LINE
  8
_0-0_
  6
CONTINUOUS
 62
    7
 10
241.03125
 20
72.305435790348113
 11
259.03125
 21
72.305435790348113
  0
LINE
  8
_0-0_
  6
CONTINUOUS
 62
    7
 10
-15.125
 20
74.305435790348113
 11
-33.125
 21
74.305435790348113
  0
LINE
  8
_0-0_
  6
CONTINUOUS
 62
    7
 10
-33.125
 20
72.305435790348113
 11
-15.125
 21
72.305435790348113
  0
LINE
  8
_0-0_
  6
CONTINUOUS
 62
    7
 10
-8.125
 20
72.305435790348113
 11
234.03125
 21
72.305435790348113
  0
LINE
  8
_0-0_
  6
CONTINUOUS
 62
    7
 10
-8.125
 20
74.305435790348113
 11
10.977963651700179
 21
74.305435790348113
  0
ENDSEC
  0
EOF
