M48
; DRILL file {KiCad (5.1.7)-1} date 05/05/21 01:15:39
; FORMAT={-:-/ absolute / inch / decimal}
; #@! TF.CreationDate,2021-05-05T01:15:39+09:00
; #@! TF.GenerationSoftware,Kicad,Pcbnew,(5.1.7)-1
; #@! TF.FileFunction,NonPlated,1,2,NPTH
FMAT,2
INCH
T1C0.0390
T2C0.0472
T3C0.0670
T4C0.1181
T5C0.1350
%
G90
G05
T1
X4.0647Y-5.8843
X11.9062Y-5.5094
X12.4447Y-6.5414
X12.6562Y-4.7594
X5.7859Y-6.6076
X4.0647Y-4.3843
X5.5647Y-4.7594
X14.1562Y-5.8844
X12.6562Y-5.5094
X4.8147Y-5.8843
X4.8147Y-6.6343
X7.8147Y-4.9469
X6.3147Y-5.5094
X11.6306Y-6.4469
X12.6562Y-4.0094
X4.0647Y-6.6343
X7.3403Y-6.4469
X10.4062Y-4.1969
X7.8147Y-4.1969
X7.0647Y-4.9469
X5.5647Y-5.5094
X14.1562Y-6.6344
X13.4062Y-4.3844
X11.9062Y-4.0094
X13.4062Y-5.1344
X7.0647Y-4.1969
X7.8147Y-5.6969
X7.0647Y-5.6969
X10.4062Y-5.6969
X10.0758Y-6.667
X11.1562Y-4.9469
X14.1562Y-4.3844
X10.4062Y-4.9469
X6.3147Y-4.0094
X6.3147Y-4.7594
X11.1562Y-5.6969
X10.8806Y-6.4469
X11.9062Y-4.7594
X8.1513Y-6.5958
X11.1562Y-4.1969
X5.5647Y-4.0094
X4.8147Y-5.1343
X13.4062Y-5.8844
X13.4062Y-6.6344
X14.1562Y-5.1344
X6.5903Y-6.4468
X4.8147Y-4.3843
X4.0647Y-5.1343
T2
X9.5079Y-5.7579
X9.7835Y-5.7579
X8.8484Y-5.7579
X9.124Y-5.7579
T3
X6.3036Y-3.844
X6.7367Y-3.844
X6.3036Y-4.594
X6.7367Y-4.594
X11.1452Y-5.5315
X11.5782Y-5.5315
X10.8696Y-6.2815
X11.3027Y-6.2815
X11.8952Y-4.594
X12.3282Y-4.594
X8.1691Y-6.431
X8.5956Y-6.5062
X11.1452Y-4.0315
X11.5782Y-4.0315
X5.5536Y-3.844
X5.9867Y-3.844
X4.8036Y-4.9689
X5.2367Y-4.9689
X13.3952Y-5.719
X13.8282Y-5.719
X13.3952Y-6.469
X13.8282Y-6.469
X14.1452Y-4.969
X14.5782Y-4.969
X6.5792Y-6.2814
X7.0123Y-6.2814
X4.8036Y-4.2189
X5.2367Y-4.2189
X4.0536Y-4.9689
X4.4867Y-4.9689
X4.0536Y-5.7189
X4.4867Y-5.7189
X11.8952Y-5.344
X12.3282Y-5.344
X12.4588Y-6.3763
X12.8869Y-6.4418
X12.6452Y-4.594
X13.0782Y-4.594
X5.7463Y-6.4467
X6.1728Y-6.3715
X4.0536Y-4.2189
X4.4867Y-4.2189
X5.5536Y-4.594
X5.9867Y-4.594
X14.1452Y-5.719
X14.5782Y-5.719
X12.6452Y-5.344
X13.0782Y-5.344
X4.8036Y-5.7189
X5.2367Y-5.7189
X4.8036Y-6.4689
X5.2367Y-6.4689
X7.8036Y-4.7816
X8.2367Y-4.7816
X6.3036Y-5.344
X6.7367Y-5.344
X11.6196Y-6.2815
X12.0527Y-6.2815
X12.6452Y-3.844
X13.0782Y-3.844
X4.0536Y-6.4689
X4.4867Y-6.4689
X7.3292Y-6.2816
X7.7623Y-6.2816
X10.3952Y-4.0315
X10.8282Y-4.0315
X7.8036Y-4.0316
X8.2367Y-4.0316
X7.0536Y-4.7816
X7.4867Y-4.7816
X5.5536Y-5.344
X5.9867Y-5.344
X14.1452Y-6.469
X14.5782Y-6.469
X13.3952Y-4.219
X13.8282Y-4.219
X11.8952Y-3.844
X12.3282Y-3.844
X13.3952Y-4.969
X13.8282Y-4.969
X7.0536Y-4.0316
X7.4867Y-4.0316
X7.8036Y-5.5316
X8.2367Y-5.5316
X7.0536Y-5.5316
X7.4867Y-5.5316
X10.3952Y-5.5315
X10.8282Y-5.5315
X10.0363Y-6.5061
X10.4628Y-6.4309
X11.1452Y-4.7815
X11.5782Y-4.7815
X14.1452Y-4.219
X14.5782Y-4.219
X10.3952Y-4.7815
X10.8282Y-4.7815
T4
X11.3617Y-5.2972
X11.5586Y-5.3839
X11.0861Y-6.0472
X11.283Y-6.1339
X12.1117Y-4.3597
X12.3086Y-4.4464
X8.4231Y-6.2379
X8.6019Y-6.3574
X11.3617Y-3.7972
X11.5586Y-3.8839
X5.7702Y-3.6097
X5.967Y-3.6964
X5.0202Y-4.7346
X5.217Y-4.8213
X13.6117Y-5.4847
X13.8086Y-5.5714
X13.6117Y-6.2347
X13.8086Y-6.3214
X14.3617Y-4.7347
X14.5586Y-4.8214
X6.7958Y-6.0471
X6.9926Y-6.1338
X5.0202Y-3.9846
X5.217Y-4.0713
X4.2702Y-4.7346
X4.467Y-4.8213
X4.2702Y-5.4846
X4.467Y-5.5713
X12.1117Y-5.1097
X12.3086Y-5.1964
X12.7083Y-6.1775
X12.8898Y-6.2929
X12.8617Y-4.3597
X13.0586Y-4.4464
X5.9189Y-6.1784
X6.1278Y-6.2295
X4.2702Y-3.9846
X4.467Y-4.0713
X5.7702Y-4.3597
X5.967Y-4.4464
X14.3617Y-5.4847
X14.5586Y-5.5714
X12.8617Y-5.1097
X13.0586Y-5.1964
X5.0202Y-5.4846
X5.217Y-5.5713
X5.0202Y-6.2346
X5.217Y-6.3213
X8.0202Y-4.5473
X8.217Y-4.634
X6.5202Y-5.1097
X6.717Y-5.1964
X11.8361Y-6.0472
X12.033Y-6.1339
X12.8617Y-3.6097
X13.0586Y-3.6964
X4.2702Y-6.2346
X4.467Y-6.3213
X7.5458Y-6.0473
X7.7426Y-6.134
X10.6117Y-3.7972
X10.8086Y-3.8839
X8.0202Y-3.7973
X8.217Y-3.884
X7.2702Y-4.5473
X7.467Y-4.634
X5.7702Y-5.1097
X5.967Y-5.1964
X14.3617Y-6.2347
X14.5586Y-6.3214
X13.6117Y-3.9847
X13.8086Y-4.0714
X12.1117Y-3.6097
X12.3086Y-3.6964
X13.6117Y-4.7347
X13.8086Y-4.8214
X7.2702Y-3.7973
X7.467Y-3.884
X8.0202Y-5.2973
X8.217Y-5.384
X7.2702Y-5.2973
X7.467Y-5.384
X10.6117Y-5.2972
X10.8086Y-5.3839
X10.2088Y-6.2378
X10.4177Y-6.2889
X11.3617Y-4.5472
X11.5586Y-4.6339
X14.3617Y-3.9847
X14.5586Y-4.0714
X10.6117Y-4.5472
X10.8086Y-4.6339
X6.5202Y-3.6097
X6.717Y-3.6964
X6.5202Y-4.3597
X6.717Y-4.4464
T5
X11.3617Y-5.5315
X11.0861Y-6.2815
X12.1117Y-4.594
X8.3824Y-6.4686
X11.3617Y-4.0315
X5.7702Y-3.844
X5.0202Y-4.9689
X13.6117Y-5.719
X13.6117Y-6.469
X14.3617Y-4.969
X6.7958Y-6.2814
X5.0202Y-4.2189
X4.2702Y-4.9689
X4.2702Y-5.7189
X12.1117Y-5.344
X12.6728Y-6.4091
X12.8617Y-4.594
X5.9595Y-6.4091
X4.2702Y-4.2189
X5.7702Y-4.594
X14.3617Y-5.719
X12.8617Y-5.344
X5.0202Y-5.7189
X5.0202Y-6.4689
X8.0202Y-4.7816
X6.5202Y-5.344
X11.8361Y-6.2815
X12.8617Y-3.844
X4.2702Y-6.4689
X7.5458Y-6.2816
X10.6117Y-4.0315
X8.0202Y-4.0316
X7.2702Y-4.7816
X5.7702Y-5.344
X14.3617Y-6.469
X13.6117Y-4.219
X12.1117Y-3.844
X13.6117Y-4.969
X7.2702Y-4.0316
X8.0202Y-5.5316
X7.2702Y-5.5316
X10.6117Y-5.5315
X10.2495Y-6.4685
X11.3617Y-4.7815
X14.3617Y-4.219
X10.6117Y-4.7815
X6.5202Y-3.844
X6.5202Y-4.594
T0
M30
