M48
; DRILL file {KiCad (5.1.7)-1} date 05/05/21 01:15:39
; FORMAT={-:-/ absolute / inch / decimal}
; #@! TF.CreationDate,2021-05-05T01:15:39+09:00
; #@! TF.GenerationSoftware,Kicad,Pcbnew,(5.1.7)-1
; #@! TF.FileFunction,Plated,1,2,PTH
FMAT,2
INCH
T1C0.0157
T2C0.0320
T3C0.0394
T4C0.0512
T5C0.0906
%
G90
G05
T1
X4.1417Y-3.9035
X4.8917Y-3.9037
X5.5906Y-4.1024
X5.6398Y-4.2854
X6.3917Y-4.2815
X7.1398Y-4.4665
X7.8937Y-5.1791
X8.0394Y-5.9409
X8.0413Y-6.0276
X8.2972Y-6.1339
X8.7638Y-4.8406
X8.9508Y-5.1161
X9.9232Y-5.2756
X11.1949Y-4.4469
X11.8661Y-4.3524
X12.7028Y-4.2244
X13.4291Y-4.5846
X14.1969Y-4.5669
T2
X4.6024Y-4.2386
X4.6024Y-4.4748
X6.1043Y-4.6122
X6.1043Y-4.8484
X11.4232Y-6.3002
X11.4232Y-6.5364
X8.5272Y-3.8316
X8.5272Y-3.9316
X8.5272Y-4.0316
X8.5272Y-4.1316
X8.5272Y-4.2316
X8.5272Y-4.3316
X8.5272Y-4.4316
X8.5272Y-4.5316
X8.5272Y-4.6316
X8.5272Y-4.7316
X8.5272Y-4.8316
X8.5272Y-4.9316
X9.1264Y-3.8316
X9.1264Y-3.9316
X9.1264Y-4.0316
X9.1264Y-4.1316
X9.1264Y-4.2316
X9.1264Y-4.3316
X9.1264Y-4.4316
X9.1264Y-4.5316
X9.1264Y-4.6316
X9.1264Y-4.7316
X9.1264Y-4.8316
X9.1264Y-4.9316
X10.5889Y-6.4268
X10.6299Y-6.6594
X13.9488Y-5.7382
X13.9488Y-5.9744
X5.3524Y-4.9886
X5.3524Y-5.2248
X5.3524Y-6.4882
X5.3524Y-6.7244
X13.9469Y-4.2382
X13.9469Y-4.4744
X13.2008Y-4.6122
X13.2008Y-4.8484
X4.6024Y-4.9886
X4.6024Y-5.2248
X6.2897Y-6.3697
X6.3307Y-6.6024
X6.1024Y-3.8642
X6.1024Y-4.1004
X6.8524Y-3.8642
X6.8524Y-4.1004
X11.6988Y-4.8012
X11.6988Y-5.0374
X10.9469Y-4.8012
X10.9469Y-5.0374
X7.6024Y-5.5508
X7.6024Y-5.787
X5.3524Y-5.7386
X5.3524Y-5.9748
X5.3524Y-4.2386
X5.3524Y-4.4748
X11.6969Y-5.5512
X11.6969Y-5.7874
X9.5056Y-3.8316
X9.5056Y-3.9316
X9.5056Y-4.0316
X9.5056Y-4.1316
X9.5056Y-4.2316
X9.5056Y-4.3316
X9.5056Y-4.4316
X9.5056Y-4.5316
X9.5056Y-4.6316
X9.5056Y-4.7316
X9.5056Y-4.8316
X9.5056Y-4.9316
X10.1048Y-3.8316
X10.1048Y-3.9316
X10.1048Y-4.0316
X10.1048Y-4.1316
X10.1048Y-4.2316
X10.1048Y-4.3316
X10.1048Y-4.4316
X10.1048Y-4.5316
X10.1048Y-4.6316
X10.1048Y-4.7316
X10.1048Y-4.8316
X10.1048Y-4.9316
X12.4508Y-4.6122
X12.4508Y-4.8484
X13.9508Y-6.4882
X13.9508Y-6.7244
X12.4469Y-3.8642
X12.4469Y-4.1004
X11.6969Y-4.0512
X11.6969Y-4.2874
X10.9469Y-4.0512
X10.9469Y-4.2874
X8.3524Y-4.8008
X8.3524Y-5.037
X8.3524Y-4.0508
X8.3524Y-4.287
X12.1752Y-6.2963
X12.1752Y-6.5325
X14.6988Y-4.2382
X14.6988Y-4.4744
X13.9488Y-4.9882
X13.9488Y-5.2244
X14.6969Y-6.4892
X14.6969Y-6.7254
X13.1969Y-3.8622
X13.1969Y-4.0984
X6.8524Y-5.3642
X6.8524Y-5.6004
X7.128Y-6.3012
X7.128Y-6.5374
X6.8524Y-4.6122
X6.8524Y-4.8484
X12.9705Y-6.7067
X13.0115Y-6.4741
X7.6024Y-4.8008
X7.6024Y-5.037
X12.4508Y-5.3602
X12.4508Y-5.5965
X14.7008Y-4.9882
X14.7008Y-5.2244
X6.1043Y-5.3642
X6.1043Y-5.6004
X4.6024Y-5.7386
X4.6024Y-5.9748
X4.6024Y-6.4882
X4.6024Y-6.7244
X14.7047Y-5.7362
X14.7047Y-5.9724
X7.6024Y-4.0508
X7.6024Y-4.287
X13.2008Y-5.3642
X13.2008Y-5.6004
X10.9469Y-5.5472
X10.9469Y-5.7835
X8.3524Y-5.5508
X8.3524Y-5.787
X7.878Y-6.3012
X7.878Y-6.5374
X8.6654Y-6.7776
X8.7064Y-6.5449
T4
X9.5177Y-5.2441
X9.5177Y-5.5
X9.1142Y-5.2441
X9.1142Y-5.5
T5
X3.9157Y-3.9039
X14.6768Y-6.1539
X9.0433Y-6.1417
X9.5886Y-6.1417
X11.6437Y-3.7205
X13.1453Y-6.6059
X5.487Y-6.6059
X13.2185Y-3.5236
X5.4134Y-3.5236
X14.7161Y-3.9039
X6.9882Y-3.7205
X3.9551Y-6.1539
T3
G00X9.5689Y-5.6752
M15
G01X9.5886Y-5.6752
M16
G05
G00X9.687Y-5.6752
M15
G01X9.7067Y-5.6752
M16
G05
G00X9.8445Y-5.6752
M15
G01X9.8642Y-5.6752
M16
G05
G00X9.9035Y-5.8406
M15
G01X9.9232Y-5.8406
M16
G05
G00X8.7283Y-5.6752
M15
G01X8.7087Y-5.6752
M16
G05
G00X8.7874Y-5.8406
M15
G01X8.7677Y-5.8406
M16
G05
G00X8.9449Y-5.8406
M15
G01X8.9252Y-5.8406
M16
G05
G00X9.063Y-5.8406
M15
G01X9.0433Y-5.8406
M16
G05
T0
M30
